<svg id="Layer_1" data-name="Layer 1" xmlns="http://www.w3.org/2000/svg" viewBox="0 0 251.4 81.5"><defs><style>.cls-1{fill:#fff;}.cls-2{fill:#bc0022;}.cls-3{fill:#041e42;}</style></defs><title>MLBshop</title><path class="cls-1" d="M84.07,66c2.52,0,4.21,1.95,4.21,4.85v5.39a.14.14,0,0,1-.14.14H85.67a.14.14,0,0,1-.14-.14V70.91a2.07,2.07,0,0,0-2.08-2.33h0a2.28,2.28,0,0,0-2.17,2.27v5.43a.14.14,0,0,1-.14.14H78.64a.14.14,0,0,1-.14-.14v-10a.14.14,0,0,1,.14-.14H81a.14.14,0,0,1,.14.14v.88A4.26,4.26,0,0,1,84.07,66m37.62,8.57a.15.15,0,0,0,0,.19,5.8,5.8,0,0,0,4.44,1.66c1.94,0,3.4-.74,4-2a3,3,0,0,0,.27-1.27c0-2.63-2.27-3.11-4.24-3.24-1.58-.1-1.58-.65-1.58-.83,0-.67,1.07-.74,1.53-.74a3,3,0,0,1,2.09.69.14.14,0,0,0,.2,0l1.4-1.62a.14.14,0,0,0,0-.2A5.26,5.26,0,0,0,126.09,66a5.47,5.47,0,0,0-2.75.69,2.76,2.76,0,0,0-1.45,2.47c0,1.83,1.46,2.95,4.11,3.14,1.5.09,1.69.53,1.69.9,0,.54-.72.83-1.44.83h-.06a4.55,4.55,0,0,1-3-1.15.14.14,0,0,0-.21,0ZM96.88,72.93a2.8,2.8,0,0,0,.59-1.84A2.64,2.64,0,1,0,94.8,73.8a2.81,2.81,0,0,0,2.08-.87m.53-6.63a.14.14,0,0,1,.14-.14H100a.14.14,0,0,1,.14.14v10a.14.14,0,0,1-.14.14H97.55a.14.14,0,0,1-.14-.14v-.75a3.85,3.85,0,0,1-2.77.83h-.15A5,5,0,0,1,90.89,75a5.3,5.3,0,0,1-1.44-3.9A4.8,4.8,0,0,1,94.55,66h0a4.37,4.37,0,0,1,2.81.75ZM67,63.68v-2.4a.18.18,0,0,0-.17-.17h-8.9a.17.17,0,0,0-.17.17v15a.17.17,0,0,0,.17.17h2.4a.18.18,0,0,0,.18-.17V70.14a.17.17,0,0,1,.17-.18h4.48a.16.16,0,0,0,.17-.17v-2.4a.17.17,0,0,0-.17-.18H60.68a.16.16,0,0,1-.17-.17V64a.17.17,0,0,1,.17-.17h6.15a.18.18,0,0,0,.17-.18m52.33,9.54a.13.13,0,0,0-.19,0,2.71,2.71,0,0,1-1.68.61,2.62,2.62,0,0,1,0-5.24,2.66,2.66,0,0,1,1.68.62.15.15,0,0,0,.19,0l1.58-1.67a.14.14,0,0,0,0-.2,4.67,4.67,0,0,0-3.49-1.38,5.26,5.26,0,1,0,0,10.52,4.7,4.7,0,0,0,3.49-1.37.14.14,0,0,0,0-.2Zm-12.78,3.2a.14.14,0,0,0,.14-.14V74.05a.14.14,0,0,0-.14-.14h-1.21c-.71,0-1-.38-1-1.14V68.94h2.24a.14.14,0,0,0,.14-.14V66.32a.14.14,0,0,0-.14-.14h-2.23V64a.14.14,0,0,0-.14-.14h-2.47a.14.14,0,0,0-.14.14v8.75a3.31,3.31,0,0,0,3.61,3.66h1.37ZM73.78,72.93a2.8,2.8,0,0,0,.59-1.84A2.64,2.64,0,1,0,71.7,73.8a2.82,2.82,0,0,0,2.08-.87m.53-6.63a.14.14,0,0,1,.14-.14h2.44a.14.14,0,0,1,.14.14v10a.14.14,0,0,1-.14.14H74.45a.14.14,0,0,1-.14-.14v-.75a3.82,3.82,0,0,1-2.76.83h-.15A5,5,0,0,1,67.79,75a5.3,5.3,0,0,1-1.44-3.9A4.8,4.8,0,0,1,71.44,66h0a4.38,4.38,0,0,1,2.82.75Zm33.88,10.12h2.47a.14.14,0,0,0,.14-.14v-10a.14.14,0,0,0-.14-.14h-2.47a.14.14,0,0,0-.14.14v10a.14.14,0,0,0,.14.14M111,63.12a1.53,1.53,0,0,0-3,0,1.53,1.53,0,0,0,3,0"/><path class="cls-1" d="M53.6,58.22,51,62.2a.19.19,0,0,1-.25.08c-5.91-3-12.74,2.5-18.76,1.19a.19.19,0,0,1-.14-.09l-3.88-6a.27.27,0,0,1,.28-.41,34.21,34.21,0,0,0,4.55.74c9.14.5,14.08-5,20.71.21a.2.2,0,0,1,.05.27M46.13,69.63a.1.1,0,0,0,.13,0l3.12-4.82c0-.06,0-.13-.07-.16-4.48-1.54-8.68,1.43-15.09,1.59a.28.28,0,0,0-.22.41l6.92,10.67a.16.16,0,0,0,.31-.1l-1.49-6.76a.13.13,0,0,1,.09-.13c.53-.2,4.45-1.53,6.3-.67"/><polygon class="cls-1" points="145.42 76.04 135.71 76.04 135.71 62.89 145.37 62.89 145.37 64.94 137.81 64.94 137.81 68.49 145.06 68.49 145.06 70.44 137.81 70.44 137.81 73.98 145.42 73.98 145.42 76.04"/><polygon class="cls-1" points="153.35 66.78 155.7 66.78 155.7 66.83 152.58 71.33 155.91 75.99 155.91 76.04 153.58 76.04 151.3 72.68 149.03 76.04 146.7 76.04 146.7 75.99 150.03 71.33 146.91 66.83 146.91 66.78 149.24 66.78 151.3 70.09 153.35 66.78"/><path class="cls-1" d="M157.45,80.35V66.78h1.82l.11,1.5A3.57,3.57,0,0,1,160.81,67a4.23,4.23,0,0,1,1.84-.42,4.74,4.74,0,0,1,1.9.37A4.54,4.54,0,0,1,166,68a4.44,4.44,0,0,1,1,1.53,5.33,5.33,0,0,1,.34,1.93,5.6,5.6,0,0,1-.33,2,4.5,4.5,0,0,1-.93,1.54,4,4,0,0,1-1.47,1,5.06,5.06,0,0,1-1.95.36,5.55,5.55,0,0,1-.89-.08,4,4,0,0,1-.9-.26,3.86,3.86,0,0,1-.83-.49,2.84,2.84,0,0,1-.65-.73v5.62Zm5-5.94a3,3,0,0,0,1.18-.23,2.71,2.71,0,0,0,.93-.62,2.64,2.64,0,0,0,.61-.94,3.29,3.29,0,0,0,.22-1.2,3,3,0,0,0-.79-2.13,2.83,2.83,0,0,0-2.15-.82,3.3,3.3,0,0,0-1.21.22,2.8,2.8,0,0,0-.91.63,3,3,0,0,0-.58.94,3.19,3.19,0,0,0-.21,1.16,3.08,3.08,0,0,0,.22,1.17,2.8,2.8,0,0,0,.6.94,2.72,2.72,0,0,0,.92.64,2.85,2.85,0,0,0,1.17.24"/><path class="cls-1" d="M170.85,72.17a2.41,2.41,0,0,0,.93,1.7,3.27,3.27,0,0,0,2.09.63,4.75,4.75,0,0,0,1.49-.25,2.76,2.76,0,0,0,1.2-.74l1.26,1.22a4.29,4.29,0,0,1-.83.69,5.11,5.11,0,0,1-1,.5,5.36,5.36,0,0,1-1.08.29,6.8,6.8,0,0,1-1.09.1,5.82,5.82,0,0,1-2.06-.35,4.29,4.29,0,0,1-1.57-1,4.39,4.39,0,0,1-1-1.55,5.46,5.46,0,0,1-.35-2,5.11,5.11,0,0,1,.35-1.94,4.38,4.38,0,0,1,2.53-2.53,5.25,5.25,0,0,1,2-.36,5.74,5.74,0,0,1,2,.35,3.93,3.93,0,0,1,1.54,1,4.25,4.25,0,0,1,.92,1.75,6.67,6.67,0,0,1,.16,2.46Zm5.65-1.63a2.22,2.22,0,0,0-.82-1.68,3.47,3.47,0,0,0-3.78,0,2.54,2.54,0,0,0-1,1.68Z"/><path class="cls-1" d="M182.14,66.78l.13,1.22a2.5,2.5,0,0,1,1.24-1.16,4.26,4.26,0,0,1,1.49-.27,3.63,3.63,0,0,1,1.28.22,2.81,2.81,0,0,1,1,.57l-.88,1.69a2.59,2.59,0,0,0-.73-.42,2.42,2.42,0,0,0-.91-.14,2.76,2.76,0,0,0-1,.16,2.34,2.34,0,0,0-.79.47,2.3,2.3,0,0,0-.54.79,2.75,2.75,0,0,0-.21,1.11v5h-1.93V66.78Z"/><path class="cls-1" d="M188.38,64.05a1,1,0,0,1,.37-.89,1.33,1.33,0,0,1,1.66,0,1,1,0,0,1,.37.89,1.1,1.1,0,0,1-.37.91,1.3,1.3,0,0,1-1.66,0,1.1,1.1,0,0,1-.37-.91m2.16,12H188.6v-9.3h1.94Z"/><path class="cls-1" d="M194.62,72.17a2.41,2.41,0,0,0,.93,1.7,3.27,3.27,0,0,0,2.09.63,4.75,4.75,0,0,0,1.49-.25,2.76,2.76,0,0,0,1.2-.74l1.26,1.22a4.29,4.29,0,0,1-.83.69,5.11,5.11,0,0,1-1,.5,5.36,5.36,0,0,1-1.08.29,6.8,6.8,0,0,1-1.09.1,5.82,5.82,0,0,1-2.06-.35A4.29,4.29,0,0,1,194,75a4.39,4.39,0,0,1-1-1.55,5.46,5.46,0,0,1-.35-2,5.11,5.11,0,0,1,.35-1.94,4.51,4.51,0,0,1,1-1.54,4.59,4.59,0,0,1,1.53-1,5.29,5.29,0,0,1,2-.36,5.7,5.7,0,0,1,2,.35,3.93,3.93,0,0,1,1.54,1,4.25,4.25,0,0,1,.92,1.75,6.67,6.67,0,0,1,.16,2.46Zm5.65-1.63a2.22,2.22,0,0,0-.82-1.68,3.1,3.1,0,0,0-1.92-.56,3.15,3.15,0,0,0-1.86.56,2.57,2.57,0,0,0-1,1.68Z"/><path class="cls-1" d="M211.13,76v-5a2.88,2.88,0,0,0-.64-2,2.33,2.33,0,0,0-1.86-.75,2.48,2.48,0,0,0-1.06.22,2.34,2.34,0,0,0-.81.61,2.89,2.89,0,0,0-.53.9,3.07,3.07,0,0,0-.19,1.08V76h-1.93V66.76h1.76l.12,1.35a4,4,0,0,1,3.12-1.52,4.2,4.2,0,0,1,1.56.29,3.33,3.33,0,0,1,1.26.86,4,4,0,0,1,.85,1.4,5.64,5.64,0,0,1,.31,1.92v5Z"/><path class="cls-1" d="M223.41,74.86A4.94,4.94,0,0,1,221.76,76a5.14,5.14,0,0,1-1.87.33A5.68,5.68,0,0,1,218,76a4.51,4.51,0,0,1-1.56-.91,4.43,4.43,0,0,1-1.05-1.53,6.08,6.08,0,0,1,0-4.23,4.49,4.49,0,0,1,1.05-1.52,4.66,4.66,0,0,1,1.55-.92,5.65,5.65,0,0,1,1.9-.31,4.94,4.94,0,0,1,1.78.32,4.8,4.8,0,0,1,1.57,1L222,69.2a3.07,3.07,0,0,0-1-.59,3.33,3.33,0,0,0-1.1-.2,3.19,3.19,0,0,0-1.16.22,2.77,2.77,0,0,0-.95.61,2.72,2.72,0,0,0-.63,1,3.31,3.31,0,0,0-.23,1.25,3.23,3.23,0,0,0,.24,1.29,2.58,2.58,0,0,0,.64.93,2.65,2.65,0,0,0,.93.58,3.59,3.59,0,0,0,1.14.19,3.7,3.7,0,0,0,1.18-.2,2.59,2.59,0,0,0,1-.67Z"/><path class="cls-1" d="M226.36,72.17a2.41,2.41,0,0,0,.93,1.7,3.27,3.27,0,0,0,2.09.63,4.75,4.75,0,0,0,1.49-.25,2.76,2.76,0,0,0,1.2-.74l1.26,1.22a4.29,4.29,0,0,1-.83.69,5.11,5.11,0,0,1-1,.5,5.36,5.36,0,0,1-1.08.29,6.9,6.9,0,0,1-1.09.1,5.82,5.82,0,0,1-2.06-.35,4.34,4.34,0,0,1-2.58-2.54,5.46,5.46,0,0,1-.35-2,5.11,5.11,0,0,1,.35-1.94,4.38,4.38,0,0,1,2.53-2.53,5.25,5.25,0,0,1,2-.36,5.74,5.74,0,0,1,2,.35,3.93,3.93,0,0,1,1.54,1,4.25,4.25,0,0,1,.92,1.75,6.67,6.67,0,0,1,.16,2.46ZM232,70.54a2.22,2.22,0,0,0-.82-1.68,3.47,3.47,0,0,0-3.78,0,2.54,2.54,0,0,0-1,1.68Z"/><path class="cls-1" d="M23.48,73.61H16.36l-1.24,2.76H12.88l5.9-13.15h2.3L27,76.37H24.74Zm-3.55-8.17L17.15,71.7h5.56Z"/><path class="cls-1" d="M14.05,49.72c-4.06.14-10.14-.65-10.4-7.29L3.74,8.85c-.11-4.06,3.67-7.18,8.15-7.18l224.77,0A7.3,7.3,0,0,1,244,9V42.42a7.3,7.3,0,0,1-7.29,7.29Z"/><path class="cls-2" d="M240.09,5.55a4.81,4.81,0,0,0-3.43-1.43h-26l12,20.07,1.1.14.64.91v.87l.78.13.69,1V28l.78.14s.78.82.78.86v1.88a12.87,12.87,0,0,0,3.21,2.16c1.05.41,1.19,2.11,1.78,3,.83,1.28,1.93,1.83,1.7,2.56-.55,2-2.56,5.27-4.44,5.46h-7.42v3.17h14.38a4.86,4.86,0,0,0,4.85-4.86V9a4.78,4.78,0,0,0-1.42-3.43"/><path class="cls-3" d="M203.53,4.12h-191c-1.3,0-3.42,0-4.86,1.32A4,4,0,0,0,6.19,9s-.18,26.69,0,32.6a6,6,0,0,0,1.7,4.29c.94.89,2.63,1.43,7.48,1.43H187.16c-.78-1.27-1.62-2.71-1.89-3.15h-3.62c0-9,3.06-14,6.68-14.94.51-.09.27-2.56-.36-3.29a16,16,0,0,1-2.11,0c-.46-.13-.15-.59-.15-.59l1.7-3.67-.22-1h-6.28c-.09,0,5.17-3.62,5.17-3.62.28-9.53,10-10.27,15.94-6.34,3.49,2.34,3.76,6.92,3.49,10.13,0,.18-.92,0-.92,0s-.59,3.48,1,3.48h6.87a10.61,10.61,0,0,1,5.5,1.79l.69-2.39Z"/><path class="cls-1" d="M244.93,48.18h-.56V49.7H244V48.18h-.56v-.33h1.49Zm2.53,1.52h-.38V48.23h0l-.54,1.47h-.36l-.52-1.47h0V49.7h-.37V47.85h.65l.43,1.21h0l.45-1.21h.65Z"/><path class="cls-1" d="M84.14,25.27a6,6,0,0,0,2.69-4.81c0-4-3.4-7.24-8.21-7.24h-12V39.48H78.85c4.85,0,9.06-2.56,9.06-7.81,0-3.16-1.38-5.29-3.77-6.4M72,23.49V18.17h6.91a2.66,2.66,0,0,1,0,5.32Zm0,11V28.3h7.22a3.12,3.12,0,0,1,0,6.23Z"/><polygon class="cls-1" points="35.63 13.22 27.1 27.47 18.57 13.22 13.26 13.22 13.26 39.48 18.65 39.48 18.65 23.81 25.63 35.47 28.57 35.47 35.55 23.81 35.55 39.48 40.94 39.48 40.94 13.22 35.63 13.22"/><polygon class="cls-1" points="50.7 13.22 45.32 13.22 45.32 39.48 62.73 39.48 62.73 34.16 50.7 34.16 50.7 13.22"/><path class="cls-1" d="M98.55,33.91a2.44,2.44,0,0,0,2.69,2.31c1.34,0,2-.73,2-1.48s-.41-1.14-1.69-1.42l-2-.45c-3.65-.79-5.1-2.86-5.1-5.27,0-3.14,2.76-5.69,6.59-5.69,5,0,6.69,3.1,6.86,5.1l-4.35.8a2.25,2.25,0,0,0-2.44-2.11,1.68,1.68,0,0,0-1.87,1.49c0,.72.59,1.13,1.35,1.27l2.27.45c3.56.72,5.28,2.86,5.28,5.38,0,2.93-2.24,5.79-6.83,5.79-5.38,0-7.1-3.48-7.24-5.38Z"/><path class="cls-1" d="M116,39.56h-5.24v-25H116v8.93A6.43,6.43,0,0,1,120.34,22c4.48,0,6.48,3.07,6.48,6.82V39.56h-5.24V29.7a2.65,2.65,0,0,0-2.79-3A2.76,2.76,0,0,0,116,29.5Z"/><path class="cls-1" d="M147.33,31a9.1,9.1,0,0,1-18.2,0,9.1,9.1,0,0,1,18.2,0m-5.24,0c0-2.9-1.86-4.24-3.86-4.24s-3.86,1.34-3.86,4.24,1.9,4.27,3.86,4.27,3.86-1.38,3.86-4.27"/><path class="cls-1" d="M149.85,47.35V22.43h5.07v1.76A6.06,6.06,0,0,1,160,22c5,0,8,3.8,8,8.93s-3.37,9-8.17,9a6,6,0,0,1-4.65-1.72v9.13Zm9-20.61c-2,0-3.86,1.38-3.86,4.24s1.83,4.27,3.86,4.27,3.9-1.41,3.9-4.27-1.83-4.24-3.9-4.24"/></svg>